<svg width="40" height="41" viewBox="0 0 40 41" fill="none" xmlns="http://www.w3.org/2000/svg">
<path d="M20 3.83333C17.8113 3.83333 15.6441 4.26442 13.622 5.102C11.5999 5.93958 9.76257 7.16724 8.21493 8.71488C5.08932 11.8405 3.33337 16.0797 3.33337 20.5C3.33337 27.8667 8.11671 34.1167 14.7334 36.3333C15.5667 36.4667 15.8334 35.95 15.8334 35.5V32.6833C11.2167 33.6833 10.2334 30.45 10.2334 30.45C9.46671 28.5167 8.38338 28 8.38338 28C6.86671 26.9667 8.50004 27 8.50004 27C10.1667 27.1167 11.05 28.7167 11.05 28.7167C12.5 31.25 14.95 30.5 15.9 30.1C16.05 29.0167 16.4834 28.2833 16.95 27.8667C13.25 27.45 9.36671 26.0167 9.36671 19.6667C9.36671 17.8167 10 16.3333 11.0834 15.15C10.9167 14.7333 10.3334 13 11.25 10.75C11.25 10.75 12.65 10.3 15.8334 12.45C17.15 12.0833 18.5834 11.9 20 11.9C21.4167 11.9 22.85 12.0833 24.1667 12.45C27.35 10.3 28.75 10.75 28.75 10.75C29.6667 13 29.0834 14.7333 28.9167 15.15C30 16.3333 30.6334 17.8167 30.6334 19.6667C30.6334 26.0333 26.7334 27.4333 23.0167 27.85C23.6167 28.3667 24.1667 29.3833 24.1667 30.9333V35.5C24.1667 35.95 24.4334 36.4833 25.2834 36.3333C31.9 34.1 36.6667 27.8667 36.6667 20.5C36.6667 18.3113 36.2356 16.144 35.398 14.1219C34.5605 12.0998 33.3328 10.2625 31.7852 8.71488C30.2375 7.16724 28.4002 5.93958 26.3781 5.102C24.356 4.26442 22.1887 3.83333 20 3.83333Z" fill="#F4F4F5"/>
</svg>
