<svg width="40" height="41" viewBox="0 0 40 41" fill="none" xmlns="http://www.w3.org/2000/svg">
<path d="M21.7133 3.83333C23.5883 3.83833 24.54 3.84833 25.3617 3.87166L25.685 3.88333C26.0583 3.89666 26.4267 3.91333 26.8717 3.93333C28.645 4.01666 29.855 4.29666 30.9167 4.70833C32.0167 5.13166 32.9434 5.70499 33.87 6.62999C34.7178 7.46288 35.3737 8.47078 35.7917 9.58333C36.2034 10.645 36.4834 11.855 36.5667 13.63C36.5867 14.0733 36.6033 14.4417 36.6167 14.8167L36.6267 15.14C36.6517 15.96 36.6617 16.9117 36.665 18.7867L36.6667 20.03V22.2133C36.6707 23.429 36.658 24.6447 36.6283 25.86L36.6184 26.1833C36.605 26.5583 36.5884 26.9267 36.5684 27.37C36.485 29.145 36.2017 30.3533 35.7917 31.4167C35.3737 32.5292 34.7178 33.5371 33.87 34.37C33.0371 35.2178 32.0292 35.8736 30.9167 36.2917C29.855 36.7033 28.645 36.9833 26.8717 37.0667L25.685 37.1167L25.3617 37.1267C24.54 37.15 23.5883 37.1617 21.7133 37.165L20.47 37.1667H18.2883C17.0721 37.1709 15.8559 37.1582 14.64 37.1283L14.3167 37.1183C13.921 37.1033 13.5255 37.0861 13.13 37.0667C11.3567 36.9833 10.1467 36.7033 9.08335 36.2917C7.9714 35.8734 6.96408 35.2176 6.13168 34.37C5.28325 33.5373 4.62686 32.5294 4.20835 31.4167C3.79668 30.355 3.51668 29.145 3.43335 27.37L3.38335 26.1833L3.37501 25.86C3.34429 24.6447 3.3304 23.429 3.33335 22.2133V18.7867C3.32873 17.571 3.34096 16.3553 3.37001 15.14L3.38168 14.8167C3.39501 14.4417 3.41168 14.0733 3.43168 13.63C3.51501 11.855 3.79501 10.6467 4.20668 9.58333C4.62617 8.47033 5.28372 7.46239 6.13335 6.62999C6.96527 5.78258 7.97199 5.12678 9.08335 4.70833C10.1467 4.29666 11.355 4.01666 13.13 3.93333C13.5733 3.91333 13.9433 3.89666 14.3167 3.88333L14.64 3.87333C15.8553 3.84372 17.071 3.83094 18.2867 3.83499L21.7133 3.83333ZM20 12.1667C17.7899 12.1667 15.6703 13.0446 14.1075 14.6074C12.5447 16.1702 11.6667 18.2899 11.6667 20.5C11.6667 22.7101 12.5447 24.8297 14.1075 26.3925C15.6703 27.9554 17.7899 28.8333 20 28.8333C22.2102 28.8333 24.3298 27.9554 25.8926 26.3925C27.4554 24.8297 28.3333 22.7101 28.3333 20.5C28.3333 18.2899 27.4554 16.1702 25.8926 14.6074C24.3298 13.0446 22.2102 12.1667 20 12.1667ZM20 15.5C20.6566 15.4999 21.3068 15.6291 21.9135 15.8803C22.5202 16.1315 23.0714 16.4997 23.5358 16.9639C24.0002 17.4281 24.3686 17.9792 24.6199 18.5858C24.8713 19.1924 25.0007 19.8426 25.0008 20.4992C25.001 21.1558 24.8717 21.806 24.6206 22.4126C24.3694 23.0193 24.0012 23.5706 23.537 24.0349C23.0728 24.4993 22.5216 24.8677 21.915 25.1191C21.3084 25.3704 20.6583 25.4999 20.0017 25.5C18.6756 25.5 17.4038 24.9732 16.4661 24.0355C15.5285 23.0978 15.0017 21.8261 15.0017 20.5C15.0017 19.1739 15.5285 17.9021 16.4661 16.9645C17.4038 16.0268 18.6756 15.5 20.0017 15.5M28.7517 9.66666C28.1991 9.66666 27.6692 9.88615 27.2785 10.2769C26.8878 10.6676 26.6683 11.1975 26.6683 11.75C26.6683 12.3025 26.8878 12.8324 27.2785 13.2231C27.6692 13.6138 28.1991 13.8333 28.7517 13.8333C29.3042 13.8333 29.8341 13.6138 30.2248 13.2231C30.6155 12.8324 30.835 12.3025 30.835 11.75C30.835 11.1975 30.6155 10.6676 30.2248 10.2769C29.8341 9.88615 29.3042 9.66666 28.7517 9.66666Z" fill="#F4F4F5"/>
</svg>
